<mxfile modified="2020-02-20T21:06:44.306Z" host="www.draw.io" agent="Mozilla/5.0 (Windows NT 10.0; Win64; x64; rv:72.0) Gecko/20100101 Firefox/72.0" etag="c788ELYEhun78szZYJhT" version="12.7.2" type="github">
  <diagram id="Ht1M8jgEwFfnCIfOTk4-" name="Page-1">
    <mxGraphModel dx="1673" dy="905" grid="1" gridSize="16" guides="1" tooltips="1" connect="1" arrows="1" fold="1" page="0" pageScale="1" pageWidth="1169" pageHeight="827" math="0" shadow="0">
      <root>
        <mxCell id="0" />
        <mxCell id="1" parent="0" />
        <mxCell id="-QjtrjUzRDEMRZ5MF8oH-9" value="1" style="rounded=1;whiteSpace=wrap;html=1;fillColor=#007CBD;strokeColor=none;fontColor=#FFFFFF;fontStyle=1;fontSize=22;" parent="1" vertex="1">
          <mxGeometry x="44.5" y="303.5" width="40" height="38" as="geometry" />
        </mxCell>
        <mxCell id="-QjtrjUzRDEMRZ5MF8oH-47" value="NSF International Kubernetes Architectural Diagram" style="text;html=1;resizable=0;points=[];autosize=1;align=left;verticalAlign=top;spacingTop=-4;fontSize=30;fontStyle=1" parent="1" vertex="1">
          <mxGeometry x="56.5" y="64.5" width="760" height="40" as="geometry" />
        </mxCell>
        <mxCell id="SCVMTBWpLvtzJIhz15lM-1" value="" style="line;strokeWidth=2;html=1;fontSize=14;" parent="1" vertex="1">
          <mxGeometry x="52.5" y="139.5" width="1060" height="10" as="geometry" />
        </mxCell>
        <mxCell id="7OVz4w7n9kzEPWy-4BBC-3" value="" style="rounded=0;whiteSpace=wrap;html=1;fillColor=#EAEDED;fontSize=22;fontColor=#FFFFFF;strokeColor=none;labelBackgroundColor=none;" parent="1" vertex="1">
          <mxGeometry x="1151" y="51" width="539" height="669" as="geometry" />
        </mxCell>
        <mxCell id="7OVz4w7n9kzEPWy-4BBC-4" value="1" style="rounded=1;whiteSpace=wrap;html=1;fillColor=#007CBD;strokeColor=none;fontColor=#FFFFFF;fontStyle=1;fontSize=22;labelBackgroundColor=none;" parent="1" vertex="1">
          <mxGeometry x="1169" y="63" width="40" height="38" as="geometry" />
        </mxCell>
        <mxCell id="7OVz4w7n9kzEPWy-4BBC-5" value="2" style="rounded=1;whiteSpace=wrap;html=1;fillColor=#007CBD;strokeColor=none;fontColor=#FFFFFF;fontStyle=1;fontSize=22;labelBackgroundColor=none;" parent="1" vertex="1">
          <mxGeometry x="1167.5" y="185" width="40" height="38" as="geometry" />
        </mxCell>
        <mxCell id="7OVz4w7n9kzEPWy-4BBC-6" value="3" style="rounded=1;whiteSpace=wrap;html=1;fillColor=#007CBD;strokeColor=none;fontColor=#FFFFFF;fontStyle=1;fontSize=22;labelBackgroundColor=none;" parent="1" vertex="1">
          <mxGeometry x="1167.5" y="305" width="40" height="38" as="geometry" />
        </mxCell>
        <mxCell id="7OVz4w7n9kzEPWy-4BBC-7" value="4" style="rounded=1;whiteSpace=wrap;html=1;fillColor=#007CBD;strokeColor=none;fontColor=#FFFFFF;fontStyle=1;fontSize=22;labelBackgroundColor=none;" parent="1" vertex="1">
          <mxGeometry x="1167.5" y="419" width="40" height="38" as="geometry" />
        </mxCell>
        <mxCell id="7OVz4w7n9kzEPWy-4BBC-8" value="5" style="rounded=1;whiteSpace=wrap;html=1;fillColor=#007CBD;strokeColor=none;fontColor=#FFFFFF;fontStyle=1;fontSize=22;labelBackgroundColor=none;" parent="1" vertex="1">
          <mxGeometry x="1169" y="536" width="40" height="38" as="geometry" />
        </mxCell>
        <mxCell id="7OVz4w7n9kzEPWy-4BBC-9" value="6" style="rounded=1;whiteSpace=wrap;html=1;fillColor=#007CBD;strokeColor=none;fontColor=#FFFFFF;fontStyle=1;fontSize=22;labelBackgroundColor=none;" parent="1" vertex="1">
          <mxGeometry x="1170" y="651" width="40" height="38" as="geometry" />
        </mxCell>
        <mxCell id="7OVz4w7n9kzEPWy-4BBC-13" value="On prem VMWare. This is where K8s Clusters will be deployed after Rancher deploys them to vSphere using its VMWare Node Templates. K8s Nodes will be assumed on Ubuntu and ETCD and control plane will all be on Masters together. No Separated ETCD cluster.&amp;nbsp; " style="text;html=1;align=left;verticalAlign=top;spacingTop=-4;fontSize=14;labelBackgroundColor=none;whiteSpace=wrap;" parent="1" vertex="1">
          <mxGeometry x="1220.5" y="62.5" width="449" height="118" as="geometry" />
        </mxCell>
        <mxCell id="7OVz4w7n9kzEPWy-4BBC-14" value="EKS Rancher will be expected to manage the Kubernetes Clusters that are on Premesis. Via vSphere API and respective ports being opened. " style="text;html=1;align=left;verticalAlign=top;spacingTop=-4;fontSize=14;labelBackgroundColor=none;whiteSpace=wrap;" parent="1" vertex="1">
          <mxGeometry x="1219.5" y="185.5" width="450" height="115" as="geometry" />
        </mxCell>
        <mxCell id="7OVz4w7n9kzEPWy-4BBC-15" value="GitLab for deploying Terraform,applications to K8s in " style="text;html=1;align=left;verticalAlign=top;spacingTop=-4;fontSize=14;labelBackgroundColor=none;whiteSpace=wrap;" parent="1" vertex="1">
          <mxGeometry x="1219.5" y="303.5" width="450" height="117" as="geometry" />
        </mxCell>
        <mxCell id="7OVz4w7n9kzEPWy-4BBC-16" value="ECR Used to house all Docker images. GitLab will leverage ECR when deploying changes. " style="text;html=1;align=left;verticalAlign=top;spacingTop=-4;fontSize=14;labelBackgroundColor=none;whiteSpace=wrap;" parent="1" vertex="1">
          <mxGeometry x="1219.5" y="419.5" width="450" height="121" as="geometry" />
        </mxCell>
        <mxCell id="7OVz4w7n9kzEPWy-4BBC-17" value="Not a 100% but we need equivalent security tools within the environment up until the applications themselves in K8s to quickly secure systems in case of attacks. " style="text;html=1;align=left;verticalAlign=top;spacingTop=-4;fontSize=14;labelBackgroundColor=none;whiteSpace=wrap;" parent="1" vertex="1">
          <mxGeometry x="1220.5" y="536.5" width="449" height="114" as="geometry" />
        </mxCell>
        <mxCell id="7OVz4w7n9kzEPWy-4BBC-18" value="SEIM, Monitoring, Analytics, Alerting of all aspects of our new environment. " style="text;html=1;align=left;verticalAlign=top;spacingTop=-4;fontSize=14;labelBackgroundColor=none;whiteSpace=wrap;" parent="1" vertex="1">
          <mxGeometry x="1220.5" y="652.5" width="450" height="118" as="geometry" />
        </mxCell>
        <mxCell id="ou7-8BUS-oH0lO7OwJfN-4" style="edgeStyle=orthogonalEdgeStyle;rounded=0;orthogonalLoop=1;jettySize=auto;html=1;exitX=0.07;exitY=0.4;exitDx=0;exitDy=0;exitPerimeter=0;" parent="1" source="ou7-8BUS-oH0lO7OwJfN-3" edge="1">
          <mxGeometry relative="1" as="geometry">
            <mxPoint x="274" y="469.0000000000002" as="targetPoint" />
          </mxGeometry>
        </mxCell>
        <mxCell id="ou7-8BUS-oH0lO7OwJfN-5" value="" style="edgeStyle=orthogonalEdgeStyle;rounded=0;orthogonalLoop=1;jettySize=auto;html=1;entryX=0;entryY=0.5;entryDx=0;entryDy=0;" parent="1" source="ou7-8BUS-oH0lO7OwJfN-3" target="ou7-8BUS-oH0lO7OwJfN-27" edge="1">
          <mxGeometry relative="1" as="geometry">
            <mxPoint x="450" y="429.20000000000005" as="targetPoint" />
          </mxGeometry>
        </mxCell>
        <mxCell id="ou7-8BUS-oH0lO7OwJfN-3" value="" style="ellipse;shape=cloud;whiteSpace=wrap;html=1;" parent="1" vertex="1">
          <mxGeometry x="300" y="398" width="120" height="80" as="geometry" />
        </mxCell>
        <mxCell id="ou7-8BUS-oH0lO7OwJfN-6" value="" style="shape=image;verticalLabelPosition=bottom;labelBackgroundColor=#ffffff;verticalAlign=top;aspect=fixed;imageAspect=0;image=data:image/svg+xml,PHN2ZyB4bWxuczpkYz0iaHR0cDovL3B1cmwub3JnL2RjL2VsZW1lbnRzLzEuMS8iIHhtbG5zOmNjPSJodHRwOi8vY3JlYXRpdmVjb21tb25zLm9yZy9ucyMiIHhtbG5zOnJkZj0iaHR0cDovL3d3dy53My5vcmcvMTk5OS8wMi8yMi1yZGYtc3ludGF4LW5zIyIgeG1sbnM6c3ZnPSJodHRwOi8vd3d3LnczLm9yZy8yMDAwL3N2ZyIgeG1sbnM9Imh0dHA6Ly93d3cudzMub3JnLzIwMDAvc3ZnIiB4bWxuczpzb2RpcG9kaT0iaHR0cDovL3NvZGlwb2RpLnNvdXJjZWZvcmdlLm5ldC9EVEQvc29kaXBvZGktMC5kdGQiIHhtbG5zOmlua3NjYXBlPSJodHRwOi8vd3d3Lmlua3NjYXBlLm9yZy9uYW1lc3BhY2VzL2lua3NjYXBlIiB2ZXJzaW9uPSIxLjEiIGlkPSJzdmc4NzU5IiBpbmtzY2FwZTp2ZXJzaW9uPSIwLjkyLjMgKDI0MDU1NDYsIDIwMTgtMDMtMTEpIiBzb2RpcG9kaTpkb2NuYW1lPSJyYW5jaGVyLnN2ZyIgeD0iMHB4IiB5PSIwcHgiIHZpZXdCb3g9IjAgMCA2MS42IDM5LjY2MDE1NiIgeG1sOnNwYWNlPSJwcmVzZXJ2ZSIgd2lkdGg9IjYxLjU5OTk5OCIgaGVpZ2h0PSIzOS42NjAxNTYiPjxtZXRhZGF0YSBpZD0ibWV0YWRhdGExMzExIj48cmRmOlJERj48Y2M6V29yayByZGY6YWJvdXQ9IiI+PGRjOmZvcm1hdD5pbWFnZS9zdmcreG1sPC9kYzpmb3JtYXQ+PGRjOnR5cGUgcmRmOnJlc291cmNlPSJodHRwOi8vcHVybC5vcmcvZGMvZGNtaXR5cGUvU3RpbGxJbWFnZSIvPjxkYzp0aXRsZS8+PC9jYzpXb3JrPjwvcmRmOlJERj48L21ldGFkYXRhPjxkZWZzIGlkPSJkZWZzMTMwOSI+JiN4YTsJJiN4YTsmI3hhOwkmI3hhOyYjeGE7CSYjeGE7JiN4YTsJJiN4YTsmI3hhOwkmI3hhOyYjeGE7CSYjeGE7JiN4YTsJJiN4YTsmI3hhOwkmI3hhOyYjeGE7CSYjeGE7JiN4YTsJJiN4YTsmI3hhOwkmI3hhOyYjeGE7CSYjeGE7JiN4YTsJJiN4YTsmI3hhOwkmI3hhOyYjeGE7CSYjeGE7JiN4YTsJJiN4YTsmI3hhOwkmI3hhOyYjeGE7CSYjeGE7JiN4YTsJJiN4YTsmI3hhOwkmI3hhOyYjeGE7CSYjeGE7PC9kZWZzPiYjeGE7PGZpbHRlciBpZD0iZmlsdGVyXzIiPiYjeGE7CTxmZUdhdXNzaWFuQmx1ciBpZD0iZmVHYXVzc2lhbkJsdXI4NTYxIiBzdGREZXZpYXRpb249IjIiLz4mI3hhOzwvZmlsdGVyPiYjeGE7PHNvZGlwb2RpOm5hbWVkdmlldyBib3JkZXJjb2xvcj0iIzY2NjY2NiIgYm9yZGVyb3BhY2l0eT0iMSIgZml0LW1hcmdpbi1ib3R0b209IjAiIGZpdC1tYXJnaW4tbGVmdD0iMCIgZml0LW1hcmdpbi1yaWdodD0iMCIgZml0LW1hcmdpbi10b3A9IjAiIGdyaWR0b2xlcmFuY2U9IjEwIiBndWlkZXRvbGVyYW5jZT0iMTAiIGlkPSJuYW1lZHZpZXc4NzYxIiBpbmtzY2FwZTpjdXJyZW50LWxheWVyPSJzdmc4NzU5IiBpbmtzY2FwZTpjeD0iNDIuMDcwMDY2IiBpbmtzY2FwZTpjeT0iMjAuNDk0NjcxIiBpbmtzY2FwZTpwYWdlb3BhY2l0eT0iMCIgaW5rc2NhcGU6cGFnZXNoYWRvdz0iMiIgaW5rc2NhcGU6d2luZG93LWhlaWdodD0iMTAxNyIgaW5rc2NhcGU6d2luZG93LW1heGltaXplZD0iMSIgaW5rc2NhcGU6d2luZG93LXdpZHRoPSIxOTIwIiBpbmtzY2FwZTp3aW5kb3cteD0iLTgiIGlua3NjYXBlOndpbmRvdy15PSItOCIgaW5rc2NhcGU6em9vbT0iMTIuODQzNzUiIG9iamVjdHRvbGVyYW5jZT0iMTAiIHBhZ2Vjb2xvcj0iI2ZmZmZmZiIgc2hvd2dyaWQ9ImZhbHNlIj4mI3hhOwk8L3NvZGlwb2RpOm5hbWVkdmlldz4mI3hhOyYjeGE7PHBhdGggaWQ9InBhdGg4NTc2IiBpbmtzY2FwZTpjb25uZWN0b3ItY3VydmF0dXJlPSIwIiBzdHlsZT0iZmlsbDojM2Y1NzY1IiBkPSJtIDIuNjYsMzkuNDMgYyAtMC44OCwwIC0xLjY5LDAgLTIuNTQsMCAwLC0zLjUgMCwtNi45NyAwLC0xMC40MyAwLjA0LDAgMC4wNCwtMC4wNCAwLjA4LC0wLjA0IDEuNjUsMCAzLjMxLDAgNC45NiwwLjA4IDEuNDMsMC4wNyAyLjQzLDAuOTYgMi42MiwyLjE5IDAuMjcsMS41NCAtMC4zOCwyLjc3IC0xLjczLDMuMzkgLTAuMDgsMC4wNCAtMC4xOSwwLjA4IC0wLjE5LDAuMTIgMC4zOCwwLjY5IDAuNzMsMS4zOCAxLjA4LDIuMDQgMC4yMywwLjQyIDAuNSwwLjgxIDEuMDMsMC45MiAwLjQzLDAuMDggMC41OCwwIDAuNywtMC40MiAwLjg4LC0yLjY2IDEuNzcsLTUuMzIgMi42NSwtNy45MyAwLjA4LC0wLjI0IDAuMiwtMC4zNSAwLjQ3LC0wLjM1IDAuNjUsMC4wNCAxLjM0LDAgMiwwIDAuMTEsMCAwLjI3LDAuMTEgMC4zMSwwLjE5IDEuMTUsMy4zNSAyLjI3LDYuNzQgMy40MiwxMC4wOSAwLDAuMDQgMC4wNCwwLjEyIDAuMDQsMC4xOSAtMC44MSwwIC0xLjYxLDAgLTIuMzgsMCAtMC4wOCwwIC0wLjIsLTAuMTEgLTAuMjQsLTAuMjMgLTAuMTksLTAuNSAtMC4zNCwtMS4wNCAtMC41LC0xLjU0IC0wLjAzLC0wLjE5IC0wLjE1LC0wLjI3IC0wLjM0LC0wLjI3IC0xLDAgLTIuMDEsMCAtMy4wNCwwIC0wLjIsMCAtMC4zMSwwLjA4IC0wLjM1LDAuMjcgLTAuMTYsMC41IC0wLjMxLDEgLTAuNDYsMS41IC0wLjA0LDAuMiAtMC4xNiwwLjI3IC0wLjM1LDAuMjcgLTAuODUsMCAtMS42OSwwLjA0IC0yLjUsMC4wOCBDIDYuNDcsMzkuNTkgNS43LDM5LjI0IDUuMiwzOC4zOSA0LjkzLDM3Ljg5IDQuNywzNy4zNSA0LjQzLDM2Ljg1IDQuMjQsMzYuNDcgNC4wNSwzNi4wOCAzLjg1LDM1LjcgYyAtMC4yMywtMC4zOSAtMC42MSwtMC40NiAtMSwtMC4zOSAtMC4wNywwIC0wLjE1LDAuMiAtMC4xNSwwLjMxIDAsMS4xMiAwLDIuMjQgMCwzLjM1IC0wLjA0LDAuMTIgLTAuMDQsMC4yNyAtMC4wNCwwLjQ2IHogbSAwLC01LjkzIEMgMy4zMiwzMy40MyAzLjk3LDMzLjQzIDQuNTUsMzMuMjcgNS4wOSwzMy4xMiA1LjMyLDMyLjU0IDUuMjgsMzEuOTMgNS4yNCwzMS4zNSA0LjkzLDMwLjk2IDQuMzIsMzAuODkgMy44MiwzMC44MSAzLjM1LDMwLjg1IDIuODUsMzAuODUgYyAtMC4wNywwIC0wLjE5LDAuMTUgLTAuMTksMC4yMyAwLDAuNzMgMCwxLjUgMCwyLjQyIHogbSA5Ljk0LC0xLjgxIGMgLTAuMzUsMS4yIC0wLjc0LDIuNTEgLTEuMTIsMy44MiAwLjc3LDAgMS41LDAgMi4xOSwwIC0wLjM4LC0xLjMxIC0wLjczLC0yLjYyIC0xLjA3LC0zLjgyIHoiLz4mI3hhOyYjeGE7PHBhdGggaWQ9InBhdGg4NTg0IiBpbmtzY2FwZTpjb25uZWN0b3ItY3VydmF0dXJlPSIwIiBzdHlsZT0iZmlsbDojM2Y1NzY1IiBkPSJtIDE5Ljc5LDMyLjU0IGMgMCwyLjMxIDAsNC42MiAwLDYuOTMgLTAuNTgsMCAtMS4xOSwwIC0xLjg1LDAgLTAuMDgsMCAtMC4xNSwtMC4xMSAtMC4xOSwtMC4xOSAtMC4wNCwtMC4wOCAwLC0wLjE1IDAsLTAuMjMgMCwtMy4yIDAsLTYuMzkgMCwtOS41OSAwLC0wLjM0IDAuMDgsLTAuNSAwLjQ2LC0wLjQ2IDAuNjYsMC4wNCAxLjM1LDAgMiwwIDAuMiwwIDAuMzEsMC4wOCAwLjQzLDAuMjMgMS4xMSwyLjIzIDIuNDIsNC4zNSAzLjM1LDYuNyAwLDAuMDQgMC4wMywwLjA4IDAuMTUsMC4xMiAwLC0wLjEyIDAsLTAuMjMgMCwtMC4zMSAtMC4wNCwtMi4xNiAtMC4wOCwtNC4yOCAtMC4wOCwtNi40MyAwLC0wLjE2IC0wLjA0LC0wLjMxIDAuMjMsLTAuMzEgMC42MiwwIDEuMjQsMCAxLjg1LDAgMCwzLjUgMCw2Ljk3IDAsMTAuNTEgLTAuNDYsMCAtMC45MiwwIC0xLjM4LDAgLTAuNDMsMCAtMC45MywwLjEyIC0xLjI3LC0wLjA3IC0wLjMxLC0wLjIgLTAuNDMsLTAuNyAtMC42NiwtMS4wNCAtMC43MywtMS4zNSAtMS41LC0yLjcgLTIuMjMsLTQuMDkgLTAuMzEsLTAuNjEgLTAuNTQsLTEuMTkgLTAuODEsLTEuNzcgeiIvPiYjeGE7JiN4YTs8cGF0aCBpZD0icGF0aDg1OTIiIGlua3NjYXBlOmNvbm5lY3Rvci1jdXJ2YXR1cmU9IjAiIHN0eWxlPSJmaWxsOiMzZjU3NjUiIGQ9Im0gMzYuMTIsMzkuNDMgYyAwLC0zLjUxIDAsLTYuOTMgMCwtMTAuNDQgMC44NSwwIDEuNjYsMCAyLjU0LDAgMCwxLjMxIDAsMi41OCAwLDMuODkgMS4xMiwwIDIuMTYsMCAzLjI3LDAgMCwtMS4zMSAwLC0yLjYyIDAsLTMuOTMgMC44OSwwIDEuNywwIDIuNTUsMCAwLDMuNDcgMCw2Ljk3IDAsMTAuNDggLTAuODUsMCAtMS42NiwwIC0yLjU1LDAgMCwtMC4xNiAtMC4wMywtMC4yNyAtMC4wMywtMC40MyAwLC0xLjIzIDAsLTIuNDYgMCwtMy42OSAwLC0wLjI3IC0wLjA4LC0wLjM5IC0wLjM5LC0wLjM1IC0wLjk2LDAgLTEuODksMCAtMi44OSwwIDAsMS41IDAsMi45NyAwLDQuNDMgLTAuODEsMC4wNCAtMS42MSwwLjA0IC0yLjUsMC4wNCB6Ii8+JiN4YTsmI3hhOzxwYXRoIGlkPSJwYXRoODYwMCIgaW5rc2NhcGU6Y29ubmVjdG9yLWN1cnZhdHVyZT0iMCIgc3R5bGU9ImZpbGw6IzNmNTc2NSIgZD0ibSA1My4yMSwzOS40NCBjIDAsLTMuNTEgMCwtNi45NyAwLC0xMC40NCAwLjEyLDAgMC4xOSwtMC4wNCAwLjI3LC0wLjA0IDEuMzksMCAyLjczLDAgNC4xMiwwIDAuNDIsMCAwLjg1LDAuMDggMS4yMywwLjE2IDEuMjMsMC4zMSAxLjkzLDEuMTEgMi4wOCwyLjQyIDAuMTUsMS4xMiAtMC40MiwyLjI4IC0xLjQyLDIuODUgLTAuMiwwLjEyIC0wLjM5LDAuMiAtMC41NCwwLjI3IDAuMzgsMC43IDAuNzMsMS4zOSAxLjExLDIuMDggMC4zMSwwLjYyIDAuNzQsMSAxLjU0LDAuODUgLTAuMDcsMC41OCAtMC4xMSwxLjEyIC0wLjE5LDEuNjUgMCwwLjA4IC0wLjE1LDAuMTYgLTAuMjMsMC4xNiAtMS4zNSwwLjI3IC0yLjM1LDAuMDQgLTMuMDQsLTEuMjcgLTAuMjcsLTAuNSAtMC41LC0xLjA4IC0wLjczLC0xLjYyIC0wLjEyLC0wLjI3IC0wLjI3LC0wLjU0IC0wLjQzLC0wLjgxIC0wLjE5LC0wLjM0IC0wLjQ2LC0wLjUgLTAuODgsLTAuNSAtMC4yNywwIC0wLjM1LDAuMDggLTAuMzUsMC4zNSAwLDEuMTEgMCwyLjI3IDAsMy4zOSAwLDAuMTEgMCwwLjI3IDAsMC40MiAtMC44NSwwLjA4IC0xLjY5LDAuMDggLTIuNTQsMC4wOCB6IG0gMi41OCwtNS45MyBjIDAuNjUsLTAuMDggMS4yMywtMC4wOCAxLjgxLC0wLjIgMC41OCwtMC4xNSAwLjg1LC0wLjczIDAuODEsLTEuMzggLTAuMDQsLTAuNjIgLTAuMzksLTEgLTAuOTYsLTEuMDggLTAuNDcsLTAuMDggLTAuOTcsLTAuMDQgLTEuNDMsLTAuMDQgLTAuMDgsMCAtMC4xOSwwLjE2IC0wLjE5LDAuMjMgLTAuMDgsMC43NyAtMC4wNCwxLjU0IC0wLjA0LDIuNDcgeiIvPiYjeGE7JiN4YTs8cGF0aCBpZD0icGF0aDg2MDgiIGlua3NjYXBlOmNvbm5lY3Rvci1jdXJ2YXR1cmU9IjAiIHN0eWxlPSJmaWxsOiMzZjU3NjUiIGQ9Im0gNTIuNTYsMjguOTYgYyAwLDAuNTggMCwxLjEyIDAsMS43IDAsMC4wNyAtMC4xOSwwLjE1IC0wLjMxLDAuMTUgLTEuMTksMCAtMi4zOCwwIC0zLjU4LDAgLTAuMTUsMCAtMC4yNywwIC0wLjQ2LDAgMCwwLjc3IDAsMS41IDAsMi4yNyAwLjE1LDAgMC4yNywwLjA0IDAuNDIsMC4wNCAwLjc3LDAgMS41NCwwIDIuMzEsMCAwLjkzLDAgMC45MywwIDAuOTMsMC45MiAwLDAuMzEgMCwwLjYyIDAsMC45MyAtMS4yMywwIC0yLjQzLDAgLTMuNjYsMCAwLDAuODUgMCwxLjY1IDAsMi41IDEuNSwwIDIuOTYsMCA0LjQ3LDAgMCwwLjY2IDAsMS4yNyAwLDEuODkgLTIuMzUsMCAtNC43LDAgLTcuMDUsMCAwLC0zLjQ3IDAsLTYuOTcgMCwtMTAuNDQgMi4zMSwwLjA0IDQuNjIsMC4wNCA2LjkzLDAuMDQgeiIvPiYjeGE7JiN4YTs8cGF0aCBpZD0icGF0aDg2MTYiIGlua3NjYXBlOmNvbm5lY3Rvci1jdXJ2YXR1cmU9IjAiIHN0eWxlPSJmaWxsOiMzZjU3NjUiIGQ9Im0gMzMuMzksMzUuNzMgYyAwLjY5LDAuMDggMS4zMSwwLjE2IDEuOTYsMC4yIDAuMzEsMC4wNCAwLjI3LDAuMjMgMC4yNywwLjQyIC0wLjA4LDEuNDMgLTAuNzcsMi40MyAtMi4xMiwyLjkzIC0xLjMxLDAuNSAtMi42MiwwLjUgLTMuOTYsMC4wNCAtMS4zMSwtMC40NyAtMi4wOCwtMS40MyAtMi40NywtMi43NCAtMC40NiwtMS42MiAtMC40NiwtMy4yMyAtMC4wNCwtNC44NSAwLjUsLTEuNzcgMS44MSwtMi44MSAzLjY2LC0zIDAuOTMsLTAuMDggMS44MSwtMC4wNCAyLjcsMC4yMyAxLjU4LDAuNSAyLjM4LDEuOTYgMi4wNCwzLjY2IC0wLjczLDAuMDcgLTEuNSwwLjE1IC0yLjMxLDAuMjMgMCwtMC4yMyAwLC0wLjQ3IDAsLTAuNyAwLC0wLjg0IC0wLjMxLC0xLjM0IC0xLC0xLjU3IC0wLjgxLC0wLjI3IC0xLjYyLDAgLTIuMDgsMC42MSAtMC4zOSwwLjU0IC0wLjU0LDEuMTkgLTAuNTgsMS44NSAtMC4xMiwxLjA0IC0wLjEyLDIuMDggMC4xOSwzLjA4IDAuMzUsMS4yMyAxLjIsMS43NyAyLjM1LDEuNTggMC44OSwtMC4xNiAxLjM5LC0wLjc3IDEuMzksLTEuNyAwLC0wLjAzIDAsLTAuMTEgMCwtMC4yNyB6Ii8+JiN4YTsmI3hhOzxyZWN0IGlkPSJyZWN0ODYyNSIgeD0iMTcuNjM5OTk5IiB5PSIyOC45NTk5OTkiIHN0eWxlPSJmaWxsOiMzZjU3NjUiIHdpZHRoPSIyLjE2MDAwMDEiIGhlaWdodD0iMTAuNTUiLz4mI3hhOyYjeGE7PHJlY3QgaWQ9InJlY3Q4NjMzIiB4PSIwIiB5PSIyOC45NTk5OTkiIHN0eWxlPSJmaWxsOiMzZjU3NjUiIHdpZHRoPSIyLjczIiBoZWlnaHQ9IjEwLjU1Ii8+JiN4YTsmI3hhOzxwYXRoIGlkPSJwYXRoODY0MSIgaW5rc2NhcGU6Y29ubmVjdG9yLWN1cnZhdHVyZT0iMCIgc3R5bGU9ImZpbGw6IzNmNTc2NSIgZD0iTSAyNi4wNywzOS40NyBIIDIzLjM4IEwgMTcuNjQsMjguOTYgaCAyLjkzIHoiLz4mI3hhOyYjeGE7PHBhdGggaWQ9InBhdGg4NjQ5IiBpbmtzY2FwZTpjb25uZWN0b3ItY3VydmF0dXJlPSIwIiBzdHlsZT0iZmlsbDojM2Y1NzY1IiBkPSJtIDE3LjY0LDM5LjQ3IGggLTIuNyBMIDExLjQsMjguOTYgaCAyLjY2IHoiLz4mI3hhOyYjeGE7PHBhdGggaWQ9InBhdGg4NjU3IiBpbmtzY2FwZTpjb25uZWN0b3ItY3VydmF0dXJlPSIwIiBzdHlsZT0iZmlsbDojM2Y1NzY1IiBkPSJtIDcuMzksMzkuNDcgaCAyLjczIGwgMy41NSwtMTAuNTEgaCAtMi42NiB6Ii8+JiN4YTsmI3hhOzxyZWN0IGlkPSJyZWN0ODY2NSIgeD0iMjMuOTEiIHk9IjI4Ljk1OTk5OSIgc3R5bGU9ImZpbGw6IzNmNTc2NSIgd2lkdGg9IjIuMTYwMDAwMSIgaGVpZ2h0PSIxMC41NSIvPiYjeGE7JiN4YTs8cmVjdCBpZD0icmVjdDg2NzMiIHg9IjM2LjA0MDAwMSIgeT0iMjguOTU5OTk5IiBzdHlsZT0iZmlsbDojM2Y1NzY1IiB3aWR0aD0iMi43IiBoZWlnaHQ9IjEwLjU1Ii8+JiN4YTsmI3hhOzxyZWN0IGlkPSJyZWN0ODY4MSIgeD0iNDEuODIiIHk9IjI4Ljk1OTk5OSIgc3R5bGU9ImZpbGw6IzNmNTc2NSIgd2lkdGg9IjIuNyIgaGVpZ2h0PSIxMC41NSIvPiYjeGE7JiN4YTs8cmVjdCBpZD0icmVjdDg2ODkiIHg9IjQ1LjU0OTk5OSIgeT0iMjguOTU5OTk5IiBzdHlsZT0iZmlsbDojM2Y1NzY1IiB3aWR0aD0iMi43IiBoZWlnaHQ9IjEwLjU1Ii8+JiN4YTsmI3hhOzxyZWN0IGlkPSJyZWN0ODY5NyIgeD0iNTMuMTM5OTk5IiB5PSIyOC45NTk5OTkiIHN0eWxlPSJmaWxsOiMzZjU3NjUiIHdpZHRoPSIyLjciIGhlaWdodD0iMTAuNTUiLz4mI3hhOyYjeGE7PHJlY3QgaWQ9InJlY3Q4NzA1IiB4PSI0Ny42Njk5OTgiIHk9IjI4Ljk1OTk5OSIgc3R5bGU9ImZpbGw6IzNmNTc2NSIgd2lkdGg9IjQuOTI5OTk5OCIgaGVpZ2h0PSIxLjkyOTk5OTkiLz4mI3hhOyYjeGE7JiN4YTsmI3hhOyYjeGE7JiN4YTsmI3hhOyYjeGE7JiN4YTsmI3hhOzxwYXRoIGlkPSJwYXRoODc0NSIgaW5rc2NhcGU6Y29ubmVjdG9yLWN1cnZhdHVyZT0iMCIgc3R5bGU9ImZpbGw6IzNmNTc2NSIgZD0iTSAxMy45OCw4LjA5IEMgMTMuMDksOC43OCAxMi4yOCw5LjQgMTEuNTUsMTAuMDEgMTEuMjEsMTAuMjggMTAuOTcsMTAuMjggMTAuNjcsOS45IDEwLjA1LDkuMTcgMTAuMDUsOS4xNyAxMC41OSw4LjM2IDExLjc0LDYuNjMgMTIuOSw0Ljg1IDE0LjA1LDMuMDggYyAwLjMxLC0wLjUgMC43NCwtMC43MyAxLjMxLC0wLjczIDYuNzgsMCAxMy41NiwwIDIwLjMzLDAgMS4wNCwwIDEuNDMsMC41IDEuMjcsMS41NCAtMC4xMSwwLjcgLTAuMjMsMS4zOSAtMC4zNCwyLjA4IC0wLjE2LDAuOTMgMC4zNCwxLjU0IDEuMzEsMS41NCAxLjMxLDAgMi41OCwwIDMuODksMCAwLjczLDAgMS4wNywtMC4yNyAxLjIzLC0wLjg4IC0xLjIsMCAtMi4zOSwwIC0zLjYyLDAgLTEuMjcsMCAtMS44NSwtMC43NCAtMS42MiwtMS45NyBDIDM4LDMuNjIgMzguMTYsMi41OCAzOC4zNSwxLjU0IDM4LjQ3LDEuMDQgMzguNywwLjU4IDM4Ljk3LDAgYyAwLjY5LDAuODEgMC41NCwxLjU4IDAuNjUsMi4zOSAwLjIzLDAgMC40MiwwIDAuNjIsMCAzLDAgNi4wNCwwIDkuMDUsMCAxLjUsMCAyLjE1LDAuNTQgMi4xOSwyLjA0IDAuMDgsMiAwLDQuMDQgMCw2LjA1IDAsMS4wNCAwLDIuMTEgMCwzLjE1IC0wLjA0LDAuOTcgLTAuNjksMS42MiAtMS42NSwxLjYyIC0xLjY2LDAgLTMuMzIsMCAtNC45MywwIC0xLDAgLTEuNywtMC43MyAtMS43LC0xLjczIDAsLTEuMiAwLC0yLjM5IDAsLTMuNzggLTAuMjMsMC4yNCAtMC40MiwwLjMxIC0wLjUsMC40NyAtMC4xNSwwLjM4IC0wLjM0LDAuODEgLTAuMzgsMS4yMyAtMC4wNCwwLjkyIC0wLjA0LDEuODUgMCwyLjc3IDAuMDQsMS4yNyAwLjgxLDIuMDQgMi4wOCwyLjA0IDAuOCwwIDEuNjEsMCAyLjQyLDAgMC4zNSwwIDAuNSwwLjEyIDAuNSwwLjQ2IDAsMS40MyAwLDIuODEgMCw0LjI0IDAsMC42OSAtMC40MiwxLjA4IC0xLjExLDEuMDggLTEuODksMCAtMy44MiwwIC01LjcsMCAtMC43NywwIC0xLjE2LC0wLjQzIC0xLjE2LC0xLjE2IDAsLTEuMzUgMCwtMi42NSAwLC00IDAsLTEuMDggLTAuNDYsLTEuNSAtMS41NCwtMS41NCAtNC43LDAgLTkuMzksMCAtMTQuMTMsMCAtMS4xMiwwIC0xLjU0LDAuNDIgLTEuNTQsMS41OCAwLDEuMzEgMCwyLjU4IDAsMy44OSAwLDAuODQgLTAuMzgsMS4yMyAtMS4yNywxLjIzIC0xLjc3LDAgLTMuNTgsMCAtNS4zNSwwIC0xLDAgLTEuMzksLTAuMzUgLTEuMzksLTEuMzkgMCwtMy44OSAwLC03Ljc4IDAsLTExLjYzIC0wLjExLC0wLjIzIC0wLjExLC0wLjUgLTAuMTUsLTAuOTIgeiIvPiYjeGE7JiN4YTs8cGF0aCBpZD0icGF0aDg3NTMiIGlua3NjYXBlOmNvbm5lY3Rvci1jdXJ2YXR1cmU9IjAiIHN0eWxlPSJmaWxsOiMzZjU3NjUiIGQ9Im0gNTUuNzIsMC4xNiBjIDAuMTksMC4zOCAwLjQyLDAuNzMgMC41LDEuMTIgMC4yMywxLjIzIDAuNDYsMi40NiAwLjYxLDMuNjkgMC4xMiwxLjA4IC0wLjQ2LDEuNjYgLTEuNTQsMS42NiAtMC45NiwwIC0xLjk2LDAgLTMsMCAwLC0wLjYyIDAsLTEuMiAwLC0xLjc3IDAsLTAuMTIgMC4xOSwtMC4yNyAwLjM1LC0wLjI3IDAuMjMsLTAuMDQgMC40NiwwIDAuNjksLTAuMDQgMS4wOCwtMC4xNiAxLjY5LC0wLjkzIDEuNzMsLTIuMDggMC4wNCwtMC41OCAwLjA4LC0xLjE2IDAuMTIsLTEuNzMgMC4wNCwtMC4yIDAuMTUsLTAuMzkgMC4yMywtMC41OCAwLjE1LDAgMC4yMywwIDAuMzEsMCB6Ii8+JiN4YTs8L3N2Zz4=;" parent="1" vertex="1">
          <mxGeometry x="488" y="398.25" width="96.1" height="62" as="geometry" />
        </mxCell>
        <mxCell id="ou7-8BUS-oH0lO7OwJfN-12" style="edgeStyle=orthogonalEdgeStyle;rounded=0;orthogonalLoop=1;jettySize=auto;html=1;exitX=1;exitY=0.5;exitDx=0;exitDy=0;" parent="1" source="ou7-8BUS-oH0lO7OwJfN-10" target="ou7-8BUS-oH0lO7OwJfN-11" edge="1">
          <mxGeometry relative="1" as="geometry" />
        </mxCell>
        <mxCell id="ou7-8BUS-oH0lO7OwJfN-13" style="edgeStyle=orthogonalEdgeStyle;rounded=0;orthogonalLoop=1;jettySize=auto;html=1;exitX=0;exitY=0.5;exitDx=0;exitDy=0;entryX=1;entryY=0.5;entryDx=0;entryDy=0;" parent="1" source="ou7-8BUS-oH0lO7OwJfN-10" target="ou7-8BUS-oH0lO7OwJfN-6" edge="1">
          <mxGeometry relative="1" as="geometry" />
        </mxCell>
        <mxCell id="ou7-8BUS-oH0lO7OwJfN-10" value="" style="shape=image;html=1;verticalAlign=top;verticalLabelPosition=bottom;labelBackgroundColor=#ffffff;imageAspect=0;aspect=fixed;image=https://cdn4.iconfinder.com/data/icons/socialcones/508/Gitlab-128.png" parent="1" vertex="1">
          <mxGeometry x="700" y="280" width="128" height="128" as="geometry" />
        </mxCell>
        <mxCell id="ou7-8BUS-oH0lO7OwJfN-11" value="" style="outlineConnect=0;dashed=0;verticalLabelPosition=bottom;verticalAlign=top;align=center;html=1;shape=mxgraph.aws3.ecr;fillColor=#F58534;gradientColor=none;" parent="1" vertex="1">
          <mxGeometry x="940" y="502" width="69" height="72" as="geometry" />
        </mxCell>
        <mxCell id="ou7-8BUS-oH0lO7OwJfN-14" value="2" style="rounded=1;whiteSpace=wrap;html=1;fillColor=#007CBD;strokeColor=none;fontColor=#FFFFFF;fontStyle=1;fontSize=22;labelBackgroundColor=none;" parent="1" vertex="1">
          <mxGeometry x="516.05" y="343" width="40" height="38" as="geometry" />
        </mxCell>
        <mxCell id="ou7-8BUS-oH0lO7OwJfN-17" value="" style="pointerEvents=1;shadow=0;dashed=0;html=1;strokeColor=none;fillColor=#DF8C42;labelPosition=center;verticalLabelPosition=bottom;verticalAlign=top;align=center;outlineConnect=0;shape=mxgraph.veeam2.restful_api;" parent="1" vertex="1">
          <mxGeometry x="320" y="420.5" width="37" height="39" as="geometry" />
        </mxCell>
        <mxCell id="ou7-8BUS-oH0lO7OwJfN-18" value="" style="shape=image;html=1;verticalAlign=top;verticalLabelPosition=bottom;labelBackgroundColor=#ffffff;imageAspect=0;aspect=fixed;image=https://cdn4.iconfinder.com/data/icons/macaron-1/48/vmware-workstation-128.png" parent="1" vertex="1">
          <mxGeometry x="357" y="419" width="47" height="47" as="geometry" />
        </mxCell>
        <mxCell id="ou7-8BUS-oH0lO7OwJfN-19" value="3" style="rounded=1;whiteSpace=wrap;html=1;fillColor=#007CBD;strokeColor=none;fontColor=#FFFFFF;fontStyle=1;fontSize=22;labelBackgroundColor=none;arcSize=50;" parent="1" vertex="1">
          <mxGeometry x="740" y="242" width="40" height="38" as="geometry" />
        </mxCell>
        <mxCell id="ou7-8BUS-oH0lO7OwJfN-21" value="" style="ellipse;shape=cloud;whiteSpace=wrap;html=1;" parent="1" vertex="1">
          <mxGeometry x="570" y="675" width="370" height="150" as="geometry" />
        </mxCell>
        <mxCell id="ou7-8BUS-oH0lO7OwJfN-20" value="" style="shape=image;verticalLabelPosition=bottom;labelBackgroundColor=#ffffff;verticalAlign=top;aspect=fixed;imageAspect=0;image=data:image/png,iVBORw0KGgoAAAANSUhEUgAAAQgAAAA8CAYAAACaaiTwAAAgAElEQVR4nO2dd3xUVfqHFexl9afuuu6uCyGFJIQqVZAqiggoIBZEFEVQQaRaQNS1d0FSSYAktID0QOhFWigBUqYlmWQmvc4kM8n0mfv8/rjJJQGSTCQC6nw/n/vPlHPPufec577nPe9573V45JFHHjWg6652BTzyyKNrVx5AeOSRRw3KAwiPPPKoQXkA4ZFHHjUoDyA8uuJyCQJmm51sg42MShtZBhtlFufVrtZlSxAETFYbWoONjArxyDPasDv+uG3zAMKjK64qi5VDSi0PrlBwU5icB5armJ9YcrWrddmy2B0cSFbReaWcm0Nl3BwqY8D6dDLzi3G6XFe7er9JHkB4dMVlNFnYnaLm/ig51wXLuHupgjlHi652tS5bFpudPWcUBETLuH5JGtcvSaNPnIr03EIPIDzyyF0ZTBZ2Jmdyf6QIiLuWKph95I8PCKfLRV6pjgk71DwQJcd7WRrv7svEUG1GEISrXb3fpBYHRLXFhrJIx86MctZlVLAqvWWOjeoKDmt1aMsqcf1BaeyRqD8rIACcTie7siv45lQRPycVcDJXd7WrdFlqMUA4XS5yKy1sTS/h/b0qHo+T021tBh3WZBC4+vKODmsy6b0+g+e2Kvn6sJojBQaMZosHFH9Q/ZkBUSuHw4njD+ycrFWLAaKo0sSPp/LouFLB9cEyrqs5audi19X57MKjOd/fsVRBvy1Z7E8vwGC2tojp9kcy/wRB+E31/a3/a6pMl8uF0+lsFqxbAhCCIOB0uXA6XS3arvNtcuFytWzZzT+/wNXumi0CCJfLxVcn8vGPUdAq5OLB3ZKAuC5Yxs1hcgJXZXA8V4/N7risujscDux2O06n85oHhdPpxG63Y7fbmzUgBUHAbrdjs9larJ2CIGCxWNDr9ZSVlVFVVeV2nS4XEC6XC7PFSpmuglKdHnMLWpN2h4NKYxWlOj36SgN2u+OK9Yva+1RhMFJSrsNYVX3VrZDLBoQgQKI6n8c3qLg59NKDu6UBcX0NJN7dJUdRVNGs+hYUFLArIYGvv/yKaVPf5MXnXuDZsc8w4YXxzHx7Bj/9+BO7d+1Gr9fjdNa/OQ67nb179vDV51+wNCKCtLS0Zp1br9NzYP8BPnjvfZZGRKDVahv8rdPppKioiH1797J40SLmzZ7DpIkTee6ZcTw3dhwvT3iJOTNnEx4aRlJSEgaDod7/s9RZ/LJ+Pf/76GOmvPYaL4wbx7NjxvLS+BeZ/c5Mlvz8M4cPH8ZkMrk9AEwmEynJySxZtJgZb03n+XHP8tSTIxk1fARjnxrN5Emv8v2333H82LGL6lNXvwUQTqeLU9mF/HBCy4Sd2fTfoKbb2nS6rknn4V/UjE3I4aMjGnYpc6msrnarPQAOp5NivYHVJ1VM35/DsC3Z9IzLoOuadLrHZfDIxizGJuQw74CW6FNZnMvOx2qzNVrmicx8vjiWw+JTeWTkN75863Q6OaMp5OdEDa/s0jBoUzbda87fKy6TkfFa3j2kYXOqFr3BiMt1ZR9ilw0IlyDwzdEsfKPlDQ7ulgZE7dFrtZxd2U0DQhAEbDYbO3cksPCD+YwbPYb+D/ejS1AnAnza076dD4G+7enWqQuD+w/g2THP8P68d0nYvoPi4mKxnS4X5eXlTJ38Ov0f7sfwx4cRHhp2EUQa07mz55jx1nR6PdSDx4c8ypZNm6ioqF9/l8uFQqEgNjqGubNm8+zYZxg8YCA9unYjqH0A7b198Pf2pYOfP927dOOxwUOYNPFlQoODSU1Opri4mNjoGN6Z/jZPPTmSvj170ymwA/7evlI7u3fuyqMDBzFx/AS+++prlAoFFoul4XvscpGZmcnyqChee/kVhgwYSLeOnfH38cO3bTt827bDr50PHQMCGdD3EV4a/yI/fPsdJ0+cuOSTvTmAsNhsyAt1fHoslxGbVATGKrh3qZybQsQHxfXBMm4IEcvwjpYzaL2S2Qe1nNIUYW7Cuiw3mkhQFjF5t5aeK1P51zIFt4XLaV3T51qFyLgxVM5dSxX8d7mch1bKGLlJxdxf89glz6PSZL3ktZpzIJuglQr6xKn48VT+Jc9tszvQlOr54kwJT2/NIChWzt8j5dwcKpfa1TpYxp0RctqskNMvTsEbezXsUhagv8R5fy9dNiCcgsCLCdncF3nlAXFvpJJVSn2T5qXVauXggYNMefU1unfuik8bL3zbtsPf25fOHYLo0qEjgb7t8W3bTvquo38AE1+cwP59+3A4HDgcDrRaLf16Pyz99/157zY6sC7UgX37GdJ/ID5tvPBp48XPixaTl5srfS8IAonHj/PZ/z7lyWFPENQ+QPqtTxsv/Ly88ffxxd/bV6pr7edDBw3m/bnz+HnRIp58bFi9/4r/8yOgZkDXfu7v7UvfHr34aMECFHIFVuulO3xKcgrff/sdwx8fht8F5w2oKdfPS/zc+79t8fPypn+fvsydNZtDBw9edI3cBUS12cJRTSkz9qlpsyyNG0Nq+4M4eG4Ok3FTqIxWdfpE6xAZ90fKeSVewfHsEqosl37alxtNrEst4KlNKu6MUNTrV61DxHIvLLv2u/si5Yxcn0ZUchE5hvPXrHaK8OjmbG4KlXHPUgWT9l0MCLvDiarUwIeHtXivzuDmMLlkGd8QIuOOCAV3LVVwS5hMmrK3CpHxtwg5ozbIWZdWSJHR/X53OWoRQAzdquGOCy6yO4C4M0LBf6PTaRudTuuQ5gPiplA5kaml2B0NPymcTif5+fm8OeUNunXqgp+XNz27dWf0yKeY8tpk5s6azbzZc3lzylSeGT2G/n36SgMpyD+A5VFRWCwW7HY76sxM+vToJUFk7qzZVDfDnN27Zw+P9H5YGmA/fPsdGo2mXl3fnTuPXt26SwOwc2AQQwcOZtzoMUya+DJvTpnKG5NfZ8Lz4xk29DE6BQbh5+WNTxsvOvj506NLN3zbtqN9Ox/69OjJqOEjmPjiBN6cMpW3pr7Bi8+9wJABA+kU0EFqR5B/IBFh4eTl5V1UZ61Wy5effcEjffpKderXqw9PjxjFpJcmivWZMpVXJrzE0yNG0rNbd/y9ffFp40WXoE68+vIrpCSnYDabpTLdAYTT5eJUThnTdmdwZ4T4u1bBMv65TEG3NSoe36RmbIKWMTu0DN2k5qHVCh6IEp/41wfLuDFExrQdCpLydNgu6B8Op5PtyiJGbFRxQ0jtwJTTJiqNnmsUDNusZvR2LaO3axi2WU3fOCWBMTL+ESn2udo+2XWVknj1+QeUIAhYrFb6b8zihhAZf4tQMH5P/WsqCAJafTU/nczlH8tUtAoRofPPSBkPrVYwfGsWE/bkMWlfPmN3aHh4nYr/LJNxQ+h5iDy2XsFOdfkV8Y1cNiAcgsCgzRpuC28eIG4IldNnQxYfHC/mw8QS/rlcJV0EdwFxc6icqLQyHI0AwmAwsHfPXrp27IRPWy+6d+nGzBkzOHLB/Luqqoqk00l8/+13PPn4MHo/1IMnHn2cLZs2S47M3xMQtU6/EcOewK+dOOC7derMhOfHExsdQ1pqKhUVFdjtdiwWC3l5eWzcuJEXnn2erkGd6lka7dv5MKBfPxYuWMD+ffsoKSmRrKAcrZaopZGMGz2GQN/20n+eHjGKA/v31+t0DoeD0OAQhg4eIlocPr706/MwX376BcePHqesrExyfpaXl3P48GHenTuPgX0foX07HwlaHy34ELVaLZXtDiDKDdUsOJLHfVFKCQ4PRCl4fW8W29MLKNFX1twXByX6SnbJNEzbnY5vrIobQ8Q+c2u4nK+OacjV1feHlOormbhLw+0R4orbzaFyvGOUfLhHzmFlDmUVldjt4j2vNBhJzsol+mQGryak478qQ4TQEtGiCU8ukXwS7gDCYrOzKq2YDtHnpzEPLlMwdbuSXTItOoNRuk4Wq43j6gLm7FHRLlolPURbhcj4NqnkiuzxuGqA8IpNZ3FKOWaHi/wqO3OPFvGPZcpmAeLWMDnLZeWN+gE0Gg0fLVxIoJ84GGbNeIdTJ09e5M0XBAGn04nJZCI3N5ft8fGkJCdTWVkJcEUAYTKZGD5smGQRTBw/AaVCKa1a1K2vy+XC4XCQkpzMpIkvSwPSz8ub3t17sj1+O2VlIjwv/J/NamXblq08/eRIqS6Bvn7ERsdgMpnE++pwkJWVxbNjnpEsgsH9BxCzfAUGg6HB66fT6Vj040+SxeHbth1dgzqxc8cOqWx3ALH+rIYBa9Kk+fgdYXIiT6jJq6jG4RIuOrfD5UJXZWJNSj4By1PFfhcso3ecgnWqsnplbzgho2dsimg5hMrwj1VwUJ5NhcmC84LrXLvsaHe6qLLa2KHW035lBq2D07ghREbouSIsNVMzdwBxRlPE5HjRz9EqOI27IxREJKrJL6/EcYllVadLoKSyitVnc7gvUilNOT47WUy19fJW8NzRVQNElzg1scoKBEBncfDTuTL+vULVLEDcFt40IJRKJa+9Mknq5It/WkRZWVmDvxcEAYfDQWVlJRazWTIfrxggHj8PiFdfnnRJs7+uzGYzIUuW8OjAQfi08SLIP5DJr75GZkZGk+D86YcfpLr4tm3Ht19/Q26NT6S6uprlkVEM7PsIPm286N65K7PfmUlpaWmjPh+Xy0VGegaff/oZAT5+ErQ+//RTVCoV0DQgBEHgnYO5/LNmr8Z9EWm8uTWFrDIjdmfj587XV7H0lFZyYt4ZLmPh0Vwqq87fp3d3K2kTlcp1wTK8l8v49EA6BpOlyRUCQRA4VlhN93VqbqgFxNkizBb3ARF5rpBusWL/vSM0jdkJMhRFFTgauVdOp4usMgMf7ZFxV7j4309OllBp/RNbEN3Xq1mdLj6d9RYHIanl/Cc6vVmAuD1cwQq5DmcjnUYuk/Hic8/Tvp0Pvm3bEbIk+KKVA3d0NQDx2iuTKCgoaLLcXTt38tL4F/Fp40WnwA7MfOcdt8CSsGMHHQM6SI7LBR/MRy6TAVBRUcHbb03joU5daqYgI4lbs9atea/VamV7fDxPPj5MauvEFydw+NCvQOOAEAQBXYWBUVuzJH+Cf6yCQ8oczLamn5gOh5Pkwgo6R6dyS6gIiZfiVaRoi6Xyn9qayd/CZVwfImPgL+kkZRe5PZ9PLDLRa30WNwSLDsWQs4WYa5ywTQHCZrfz3uE8/i9CnCY8sEzJocwiqq2NL5sCWGwOzuWW8vBaJbeHyfj0VDFGN67H5eqqAaLn+izWZFw+IKKbAES6UsXUVydLFsSsGe9wIvEEtibWsi/UtQyI06dP8/Zb05oFCEEQOHE8UVyVqTnf7JmzOJOUBEBZWRmjnhxBBz9/fNp48cbrU0hNTXW7refOnuWdt2dIbR06aAjxW7cBjQPCJQgoNXkMWCdON28Ok9N/gxpjtcntGIC8SjMvrT/NXeFiv3kiLpWENK00gHutz+TGUBm3hst5YaeW6joO1KZUFxCtQ2QEnynEZHYPELpKI6/u1tA6RGxX57VqCo0Wt+AkCAIWu4PlKcXM2K9hm1qP7c/ig2hV45S8qc4xcHM2G9Wi80hvcRCapqNdbIb0/Y2hcm4IbRwQd7gBiLy8PL7/+jtp2a9/n74s+GA+hw4eIiM9neLiYkwmU5NLpdcyINLS0pgza3azAAGQdDqJYY8+Jp1vxvTpnDxxAkEQKCoqYkDffpJv4905cyktLXW7rZkZmXz1xZdSW3s/1JP1ceuAJgDhcpEoy6DPavEe/22pgtE7ctw+L0CxwcSCTUe5LzyF64Jl9F+VzNqkLJxOJ2X6CoJWqbg+WMZ9UUre/rWwWWVfBIikArcBoS0q5fn4DK4LFlfwHtuqRd/MaYLT6aS0sgqj+crEQvzugLglTM6/lqsIXJ1Jx7Xi0WVtJlMPFHAwXxxcBquT1ekVDNumpfNatfi7NZm0X5XBvVFKaf37wuPOCAUxCl2jg9tUbeLE8UT69+krdfYAHz/6P9yPWTPeZnlUFCcSE8nNyUGv01FVVYXdbr+I6tcyIGQyGXNnz2k2IM4kneHJx4fj5yVelxnTpnOiJrgpLzePPj164efljW/bdiz4YD5Go9Httmq1Whb/tEhq60OdurB29RqgcUA4XS5+PSen50rRR3BvlJIJe5puS12VGkx8teUw/4gQAdE75izRJzKxOxzkFBQRECtaJ/9eoeK9483bA3IhIJYkFUgWSFOASM8r5pmtopX8f5FKxibkUnEF/AiXo98dEIM3a1ibXkm5xYneKh4VVifVdif2GpPRJQhYnS6MNhcV1vO/y6uys1JVgVfspace7gBCEAQqKyv5+quvebhn74uCfILaB9CtY2ceH/Iob019g6XhEcjSZNjt9nrl/GkBMWw4fjXgnPn2DE6dOoXT6USr0dD7oR5STMXHHy6UViHcUW5uLiFLgqW2du7QkdUrVyEIQpOA2J+URo9YERD/WKbi1f2XjkZsSGVGE99vP8b9EWIZPVecJSoxHZvdjjonD/8Ysa8+GK1i/vHiZpV9ISB+Pl1Atck9QMi0BYzeLDri74lU8twuDyCYcbiQlHILggAC54+6qresVOdwuARKzQ76bBAdVheW/bcIBbFuRFLWBktFRizl2THP0LkmSKiuBz/Ax49uHTvTv09fnh4xik8++pjks+ekAJ+/AiBmvzOTpNOncTqdaLKz6VUHEJ8s/KhesFNTysvLIzQk9DwgAoNYFbvSLUDsO51Kj1jx6X//MiWTmwmIcqOJH3cclwDRfcUZIo+rsNntZGhy8I+R1wAi/bIA0SpYxuLT+VS5CYg0TQGjN4vWyz1RSp73AELG+D15/FpQjdMl4BLE48Ktx0Kdz1x1DrPDRVKpmc5rMy8ZaekuIGqVl5vHwQMHiAgLZ+7s2YwbPYZ+vfpIjjjv/7aVrIuHe/bm7bemc2Dffkwm018CEHNmzuZM0hnJgrhsQASHSG3t0iGI1SvdA8T+pNR6FsRrv8GC+KGOBdFjxRkij9dYENpcyYL4z4p03m8RQIiWVbMtiJ0eQNB+VQZTDxQQnKojNE08ImQ6dmiN5BhFM97icHGmxMwqVQXhNb8JTdXx47kyXt2fL0XTXS4g4Pymq7Nnz7J182YiwsL59ONPmP7GW4x9ajR9uveUOnWngA68N3ceZ5KS/hKAmDd7DufOnsPlcpGbm0ufHj3x8/LGz8ubhQs+bFZbc3JyWLL4Z6mt3Tp2Zu2q1UDTPohDZ2WSD+LvUUpe3ts8H0SZ0cQ3W49yf40Polf0WVacyLjIB/HAChXzjv12H8T1wTIWncrDWO0eIJS5RYzdUuuDUDB2h9YDiOuXpHFTiLgkeWeEgjsj5Ny9VMGYhBx25lQBUG5x8O2ZMgJWZ3LX0trfiTvrGlvF+C2AuJSqqqpQKpRs2rCRBR/M59GBgySH5sC+jxAWEorFYkGtVtcDxJyZs6iqqnL7PNc6IN6bO4/k5GQEQaCwoIBH6jh235/3Hjqd++nTstRZfPfNt1Jbe3Xrzvq4OKBpQBxPVdF7tXjP745U8Oyu5q1ilBhMfLL5KH+vWcXotzKZVafV4gqATk/QqnRpFWP6rwXN2tNwISB+OpmLsSYIqylAZBeW8ty2DKnNw+M1zV7FcLkEqswWLDZ70z9uAV21OIihW7Vsyxa94mVmB/87Ke7HaE4cREsBoq7KSkuJjY7hoc5dpW3M782dh06nQ6PRnHd0thVjKpoTdHWtA+L9ue+SkpwCQGlpKUOHPCpFQ74z/W2ys7LdbqtMJmP++/Oltg54uB+bN24EmlrmFEjO1NBvrdifbg2XM3RLNnaH+4lbCg1mpm9K4p6aOIgha1PZnHI+DqLHukxuCBFX2MbvysHiRqBSrS4ExI8ncjG4CYjiMh0TE9RcHyzjtnAFfX7Josxsv8gn15AEQaC0ysIBRQ7pRborkhviqgFiyGYNW2oAUWp2sPBECfc3ExB3RShYqWx8FaO5crlclJaWMnL4CGkz09tvTSMnJ4fS0lIG9x8oDeCpk19HrVa7XfY1D4h335OCofQ6Ha9MmEjnDh3xaePF+OeeZ8/uPW639cjhw7zw7HNSW8c89TR7du8Gmo6kLCotZ+jGDGkfRqeVStR5hY3u2q2rbIOVwb8ouL0mLPmZDWkcU+VI5T8Zr+WOmo1ag9crScvO/U2RlNcFy/jhRC4GY5VUdqORlDYbMw7lc2uYXNyktVyJqkjvdrvMDhezD2jxjVHydVLJnzuScshmDVuyrj1AgLgDdPSopyTn5dtvTSc/Px+j0ciE58dLW6WfHjGSDRs2uF3utQ6ID957X8qSZTQa+fbrbyWLqV/vPnzx6WeN7pytlV6nZ1lklJR7w6eNF/PmzCX53Dmg6b0YNrudSftyuWup2KceiJLz+aEMdOamzeoqs5U9qgLuXSouQ94YKmfWAQ3F+krpN3N2KXkwsnYvRhqfHVThaCTYrq4uAkRiDpVuAkIQBH5KKsYvWsn1wTLuCk/j24NyCiqb9u2YrDYSM/IIjFVyU6iMj0+WXBH/xVUDRN8N2azPFG9aicnOrCNF/L2ZuzlFQDQ8xXC5XBQWFLA+bh3RK6JRKZVNeuItFgupKSkMeqQ/7dv50N7bh/fmvYvBYMBisfDNl1/Tr3cfcQNTl27MmDad7OzsJgeOzWZj65YtUq6HaxEQdfdi2Gw2EhMTGTV8BH5eYiaqZ0aPYd/efY2GqVssFrZvi2fi+AlSkFWnwCBWr1wlbZJzZzdn2CkN3VaK9/2WUBmdYuVsTslBV9Xw/bPabBzTlPLSNgWtg8X/BsbIWJpc3/r45XQmPVbWhOuHpdFrtZyNMjFTU0OWhNlqIy2/nC+Pavj3chWtasr/PjGHypoAMnc2ax1UlzBuswiIm4LT6BaTSlxKLmXGhmNMLDY7Z3LLmbg9nTtq/HKfnCym8s+8m7NtTDrzE4s5XWJmd04VgzY3nnTmkoBY2jggDAYDu3ft5qkRIxk6eAgfL/yIhB07yM7OvggUgiBgNBg4ffo0n336KZ0Dg/Bp40XfXr35edEiKZ/C0SNHeXbM2JosSmLylK+/+JLE44mUlJRgtVqlTM9Wq5Wy0lIUCgU7tm/nvbnz6OgfeB4Q332P9hoCxML5C1AoFOevh9HIxx8ulKyIhzp1Ycprk9m9cxfZ2dlUVVXhdDpxOp2YzWZycnLYEb+dN16fIuWoCPDxY9LEV0g+lyztLnUHELK8EqbuTJf2U9wQImPUulSizuSRVqjHUC2Gx7tcLkwWK+oyA1tUJUzdk8XfI1LEfBBhcqbtyeRMgb5e2ZricibtzOL/lsprICFj6DoZi88UsytLx+k8HakFOs7mlXMkq5ht6gpCzxXz1q4MHopJEZPMLKkFhJYKg/uAKK00suiEljZRYhmtQ2SM3CAn4kweyQUV6IxVOGqyhJutNjTlBuKVxczYl809kWJS6OuDZXx5urjJlHotoRbJKDV4S/MB0SpYRue1al7dl8+Le/K4JUxeL12+O4C4e6mCVSp9g9QvKipiWWQU/t4+eP+3LQG+7Rk3Ziw/fPc9u3ft4kzSGVJTUpGlpnH2zFnit25j/vvv061TF3xrIi2nvDaZA/sPAGIHMJvNfPPlVwzs94j0hOzoH8i0N98iZkU0+/ftJ/H4cY4dPca+vXtZFRvLxws/4ukRI+vBoXNgEFFLIykqPD/3vtqA+GjBhyiVynq/OXbsGNPeeLPegB83WryG8Vu3cfTIEY4dPcqunTtZsngxY0Y9LcG1g58/wx59jO3b4tHrzw9StzJKOZ38oijh0V+U3Bp+PptSp+hUZu5UsCY5l/05Bg7kGNioKOaTQ2oGrFNKvoUbQ2T0i1ORkF4ibceulSAIrFWU8djGDO4IP9+f/rlMyZD1cl6LlzEjQc7UbWk8E5dEz7Uq7otS1ovFqe2T3x1vHiAAkgoqmZqQwZ1hYs6KViEyOsbKmJagJDpJwx6NnoO5BraqSvjysJpH18m5vc41eHC5mCipsT1ILaUWAcSwbZqL8vo1BQh3ANDU9/dFKVmbXtEgIKqrq9mzezcD+/arn4+xbTsC/fzp1/thnnz8CZ4eMZLB/QfQuUOQNIDbt/NhUP8BrF61+qKlzIyMDD6cv4AeXbpJy4C1QVaBvu3pFBhEx4AO0g7Sut8H+PjRNagTE14YT+Lx41JIdy18nhz2RB1AvEphYdObieRyOfMkQAQxa+ZM8vOaDi46k3SGEXUA8cnCj0ivydlQK0EQ2JmQwKSJL1+UI7O9tw9B/gF0CuxQ7zr4tm1HoG97nnj0MZZHLrsofsJosrCrDiAaejdnlcnEOnkhXePS6z1AarM53R6h4M5wOa1rnqq1A+iWMDltlivYejYTvfHSy9AWi5XVaUU8Eidun65bxqX6XOsQGbeEybg1TFbPgvjuuJhtuvZaWW02BtQBxIuXAITD6eRkXgUD1im4I1xW71URrYNl3Boq5p+86YJ2tQ6RcXeEjLn7s0gtcn9fzOWoRQDx2q4s6WZfSUAErs5gW3bD6dVr92Ec/vVXxo0eKzkXa+MY/Ly88fcWk8DWWgO1cHh88KNs+OUXSkpKLs7y43SSkZHBz4sXM7Bf/3oAqM3yXDc5bO33nQODGDdmDCuWLyc3JxebzSaVXZt5e/TIUSJY2rZjyuTXG01uU6vsrCw+/GB+TcRiRxYu+NAtsCSfO8e4p0dLg/vLzz4nO/vipUyr1crpU6dY8P4HdPQPrNe2C9vq/d+2dAzowCsvvcz2bfGYzRe/l7LaYuWIQsMDNQlh/r5MecmIRkEQMJitHNaU8XR8Jn+LqMn4XNOnalc56vaJ28Ll9FqrIuFcBhXVZlwNPDwEQcBkc3A6V8e8XUraRKdL+SYv7HOtQmQ8uCKd0ZtVvL5Dju/KdMnHURcQIGbiGrolm5tDZdwTqWBSA1GgJqudszmljN2czr1L64+d2nbVtvG6YDEXpleMksVHVWSXG3FcofT3LZL2PvKYiqDoSw/i3xMQr3EQFtUAAAXuSURBVGxJJSlf33j9XC6qjEZSU1KIjFjK22+9yROPDaVbx85SEhnftu3o4OfPI7378sqEiSz68UdOJJ6gvLy8Qeej1WolPz+fQwcP8v233zHxxQkM7PsIXTp0pIOfPx3aB9C1Jo3++Oee56MPF7I+bh1pqWlSjshL1TUiNIwxo57mmdFjWBYVddGmsUvJbDazfWs8UyZN5pWXJpKYmOjWxqqiwkKiIiMZMmAQo0eOYuuWLQ1GS1ZXV5ORnsGmjRuZM2s2Tw0fSe+HetDRP5AOfv507diZoYOGMO2NN4mNjiE1JZUK/aVjRJwuF8WV1by6PYPAlUqe3aJkh/LSQHMJAlVWO7JyEyvP5fLmdjm9V8v55zIVt4bLuSVMzr2RSjqtUvLCZhmLjqk5kW+gstrs1uqWyeYgW1fN0XwjMWe0fL5fweyENGYkyHh3t4yv98tYdS6XgzmVyMtM/JJejleMCIjWwTJ+rhNqDSJ4Qk/nMGh9OiM2qliXknvJ8wqCgNlmR15mYuW5HKbtUtFvnZL/rFBxe7iY/v7uCAX+MQqe2ijn818zOKjVU1hZja0Zr1q4XF3+i3OAjMJyXojP4O7wiwfy7wGI1qFy/hWTzuqUvEa9v3XlcrkoyM8n6fQpdiYksG7NWpZFRhEWEkpYSCjRy1ewedNmjh05ikajcWtg1k4LsrKyOHL4CNu2bCVuzVpWxsSyKnYl6+LWEb9tG78e+hWFXI6uvOlMxNlZWezbs5cD+/aTnZXlVtsAigqLOHE8kSOHD2M0Gt0aHFarFa1Gw/Zt8ezbs5f8/PxG6+d0OqmoqODcuXPs3b2Hjb9sYPXKVayMiSVubRw7tm/n9KlTFBcXN7mq43C6SMyr5JeMCn7V6iluYqlPAPRVJs7m64hX64hW6AlJKSM4uZRlch2bMvUcz9GRpzP8prm5y+VCb6wmu0SPrEB0UioKdWhLdFRWmXA4nVhsNjapSrkrQk6rJWncGaFguazsojiGbF0VO7Mr2KepoEDf9FRAZ6wmubCCHdkVxKoqCEsV2xUp07E+Xc8hrZ6sssqaYLFmN+2y1CKv3nM6nayVFTF8o0ryOv9egLgpREbb5TLmHs4lW990opeG5HK5sFgsVFVVUVVVVc/cvxzVrmD8EV7ld7mqTVTb3Hdztty5XVf0OmeVGfjfr2paBYt9OiBazpbMhp3kv0Xn3815bfSfFnt5b5XJTJyskNFb0vFensY9S2XcHi7ntjDxuDW8gaOp72vKuGupgn8vV9BrjYLZ+9TkleqvSNpvjzwCMJitrE0rYEBcmvTQemFjGidzG5/i/tHVYoAA8emZXaIj4oic57el88gGNT3Xq+mxTk2PdVkNHE19n0Wv9WqGJ+TwweFs9ipzsV2hjSoe/XklCAJ2pwurw4nd4ZTS3Qt1vne5BOwOMbnRbkUuz2xMk1Y7bgxJI+JYOsX6hp3kfwa1KCBAdEBV2xzoLQ7KzA5KW+gotzgx2JxYHdeG6eXRH1uGqmqOZRaw+mQ6e88qSc8tQm8wYrXZcDgcmC1W8kt07EvJZM5eNZ1XKbktTJzm3hwmo886Jckl1Vf8ZbpXWi0OCI88+iNoZVoxIzepCIiW0SVWRp84FYM3qhm+VcPIeC1PbMmm/y8ZdFkp599Rcm6pgcONoXJ8Y1WsT9Ze0ZfoXi15AOHRX1JfHM/He3n9+IPat3nfFCoXX993QWzCPyLlDNuYTlhSPqWVxma92f2PKg8gPPpLapOylAnbVATFyngwJp27IxXcEiZGZbYKFkO174hQ8K/lKjrFpPHEBiVzDmrZrCql0lj1l5nmegDh0V9SxmoTxzILWJSYzezEYsbvzuXJeC2DNmfTf2M2Q7ZoGJOQy/RDhSw5nsmxjDx0Bvezh/1Z5AGERx551KA8gPDII48alAcQHnnkUYPyAMIjjzxqUB5AeOSRRw3KAwiPPPKoQXkA4ZFHHjUoDyA88sijBuUBhEceedSgPIDwyCOPGpQHEB555FGD8gDCI488alAeQHjkkUcN6v8BJ9B6AsKG6rQAAAAASUVORK5CYII=;" parent="1" vertex="1">
          <mxGeometry x="632" y="720" width="264" height="60" as="geometry" />
        </mxCell>
        <mxCell id="ou7-8BUS-oH0lO7OwJfN-23" value="" style="rounded=1;arcSize=10;dashed=0;fillColor=none;gradientColor=none;strokeWidth=2;" parent="1" vertex="1">
          <mxGeometry x="450" y="193" width="610" height="442" as="geometry" />
        </mxCell>
        <mxCell id="ou7-8BUS-oH0lO7OwJfN-25" value="" style="outlineConnect=0;fontColor=#232F3E;gradientColor=#F78E04;gradientDirection=north;fillColor=#D05C17;strokeColor=#ffffff;dashed=0;verticalLabelPosition=bottom;verticalAlign=top;align=center;html=1;fontSize=12;fontStyle=0;aspect=fixed;shape=mxgraph.aws4.resourceIcon;resIcon=mxgraph.aws4.eks;" parent="1" vertex="1">
          <mxGeometry x="722.5" y="430" width="130" height="130" as="geometry" />
        </mxCell>
        <mxCell id="ou7-8BUS-oH0lO7OwJfN-26" value="" style="outlineConnect=0;dashed=0;verticalLabelPosition=bottom;verticalAlign=top;align=center;html=1;shape=mxgraph.aws3.virtual_private_cloud;fillColor=#F58534;gradientColor=none;" parent="1" vertex="1">
          <mxGeometry x="408" y="177" width="79.5" height="54" as="geometry" />
        </mxCell>
        <mxCell id="ou7-8BUS-oH0lO7OwJfN-27" value="" style="rounded=1;arcSize=10;dashed=0;fillColor=none;gradientColor=none;strokeWidth=2;" parent="1" vertex="1">
          <mxGeometry x="490" y="223" width="382.5" height="347" as="geometry" />
        </mxCell>
        <mxCell id="ae54-AySs7XKtcsOsyKT-4" value="" style="shadow=0;dashed=0;html=1;strokeColor=none;fillColor=#4495D1;labelPosition=center;verticalLabelPosition=bottom;verticalAlign=top;align=center;outlineConnect=0;shape=mxgraph.veeam.vsphere_server;" vertex="1" parent="1">
          <mxGeometry x="30" y="355.5" width="244" height="185" as="geometry" />
        </mxCell>
        <mxCell id="ou7-8BUS-oH0lO7OwJfN-16" value="" style="aspect=fixed;html=1;points=[];align=center;image;fontSize=12;image=img/lib/mscae/Kubernetes.svg;" parent="1" vertex="1">
          <mxGeometry x="80" y="355.5" width="46.38" height="44.52" as="geometry" />
        </mxCell>
        <mxCell id="ou7-8BUS-oH0lO7OwJfN-22" style="edgeStyle=orthogonalEdgeStyle;rounded=1;orthogonalLoop=1;jettySize=auto;html=1;jumpSize=10;strokeWidth=5;" parent="1" target="ou7-8BUS-oH0lO7OwJfN-20" edge="1" source="ou7-8BUS-oH0lO7OwJfN-23">
          <mxGeometry relative="1" as="geometry">
            <mxPoint x="770" y="647" as="sourcePoint" />
          </mxGeometry>
        </mxCell>
        <mxCell id="ae54-AySs7XKtcsOsyKT-5" value="4" style="rounded=1;whiteSpace=wrap;html=1;fillColor=#007CBD;strokeColor=none;fontColor=#FFFFFF;fontStyle=1;fontSize=22;labelBackgroundColor=none;" vertex="1" parent="1">
          <mxGeometry x="912" y="461" width="40" height="38" as="geometry" />
        </mxCell>
        <mxCell id="ae54-AySs7XKtcsOsyKT-7" value="AWS WAF" style="outlineConnect=0;fontColor=#232F3E;gradientColor=none;strokeColor=#ffffff;fillColor=#232F3E;dashed=0;verticalLabelPosition=middle;verticalAlign=bottom;align=center;html=1;whiteSpace=wrap;fontSize=10;fontStyle=1;spacing=3;shape=mxgraph.aws4.productIcon;prIcon=mxgraph.aws4.waf;" vertex="1" parent="1">
          <mxGeometry x="904" y="193" width="68" height="95" as="geometry" />
        </mxCell>
        <mxCell id="ae54-AySs7XKtcsOsyKT-8" value="&lt;div&gt;&lt;br&gt;&lt;/div&gt;&lt;div&gt;&lt;br&gt;&lt;/div&gt;&lt;div&gt;&lt;br&gt;&lt;/div&gt;&lt;div&gt;&lt;br&gt;&lt;/div&gt;&lt;div&gt;&lt;br&gt;&lt;/div&gt;&lt;div&gt;&lt;br&gt;&lt;/div&gt;&lt;div&gt;&lt;br&gt;&lt;/div&gt;&lt;div&gt;&lt;br&gt;&lt;/div&gt;&lt;div&gt;&lt;br&gt;&lt;/div&gt;&lt;div&gt;&lt;br&gt;&lt;/div&gt;&lt;div&gt;Amazon GuardDuty&lt;/div&gt;" style="outlineConnect=0;fontColor=#232F3E;gradientColor=none;strokeColor=#ffffff;fillColor=#232F3E;dashed=0;verticalLabelPosition=middle;verticalAlign=bottom;align=center;html=1;whiteSpace=wrap;fontSize=10;fontStyle=1;spacing=3;shape=mxgraph.aws4.productIcon;prIcon=mxgraph.aws4.guardduty;" vertex="1" parent="1">
          <mxGeometry x="972" y="192" width="68" height="102" as="geometry" />
        </mxCell>
        <mxCell id="ae54-AySs7XKtcsOsyKT-9" value="5" style="rounded=1;whiteSpace=wrap;html=1;fillColor=#007CBD;strokeColor=none;fontColor=#FFFFFF;fontStyle=1;fontSize=22;labelBackgroundColor=none;" vertex="1" parent="1">
          <mxGeometry x="864" y="192" width="40" height="38" as="geometry" />
        </mxCell>
        <mxCell id="ae54-AySs7XKtcsOsyKT-10" value="6" style="rounded=1;whiteSpace=wrap;html=1;fillColor=#007CBD;strokeColor=none;fontColor=#FFFFFF;fontStyle=1;fontSize=22;labelBackgroundColor=none;" vertex="1" parent="1">
          <mxGeometry x="624" y="675" width="40" height="38" as="geometry" />
        </mxCell>
      </root>
    </mxGraphModel>
  </diagram>
</mxfile>
